<svg width="28" height="28" viewBox="0 0 28 28" fill="none" xmlns="http://www.w3.org/2000/svg">
<path d="M15.75 23.625C16.2332 23.625 16.625 23.2332 16.625 22.75C16.625 22.2668 16.2332 21.875 15.75 21.875C15.2668 21.875 14.875 22.2668 14.875 22.75C14.875 23.2332 15.2668 23.625 15.75 23.625Z" fill="#26516F"/>
<path d="M24.5 17.5C25.4651 17.5 26.25 16.7151 26.25 15.75V12.25C26.25 11.2858 25.4651 10.5 24.5 10.5H23.625V6.125C23.625 5.16075 22.8401 4.375 21.875 4.375H17.5V3.5C17.5 2.53575 16.7151 1.75 15.75 1.75H12.25C11.2849 1.75 10.5 2.53575 10.5 3.5V4.375H6.125C5.15987 4.375 4.375 5.16075 4.375 6.125V10.6243C2.87 11.0154 1.75 12.3743 1.75 14C1.75 15.6257 2.87 16.9837 4.375 17.3757V21.875C4.375 22.8401 5.15987 23.625 6.125 23.625H12.25V24.5C12.25 25.4651 13.0349 26.25 14 26.25H24.5C25.4651 26.25 26.25 25.4651 26.25 24.5V21C26.25 20.0357 25.4651 19.25 24.5 19.25H23.625V17.5H24.5ZM24.5 15.75H21V12.25H24.5V15.75ZM12.25 3.5H15.75V7H12.25V3.5ZM10.5 6.125V7C10.5 7.96513 11.2849 8.75 12.25 8.75H15.75C16.7151 8.75 17.5 7.96513 17.5 7V6.125H21.875V10.5H21C20.0349 10.5 19.25 11.2858 19.25 12.25V13.125H8.62575C8.46851 12.5237 8.15397 11.975 7.71447 11.5355C7.27496 11.096 6.72634 10.7815 6.125 10.6243V6.125H10.5ZM3.5 14C3.5 13.0358 4.28487 12.25 5.25 12.25C6.21513 12.25 7 13.0358 7 14C7 14.9642 6.21513 15.75 5.25 15.75C4.28487 15.75 3.5 14.9651 3.5 14ZM24.5 24.5H14V21H24.5V24.5ZM21.875 19.25H14C13.0349 19.25 12.25 20.0357 12.25 21V21.875H6.125V17.3757C6.72634 17.2185 7.27496 16.904 7.71447 16.4645C8.15397 16.025 8.46851 15.4763 8.62575 14.875H19.25V15.75C19.25 16.7151 20.0349 17.5 21 17.5H21.875V19.25Z" fill="#26516F"/>
</svg>
