<svg width="29" height="29" viewBox="0 0 29 29" fill="none" xmlns="http://www.w3.org/2000/svg">
<g clip-path="url(#clip0_528_978)">
<path d="M21.1595 20.6642V21.8309C21.1595 25.3309 18.8262 26.4976 15.3262 26.4976H12.9928C9.49284 26.4976 7.15951 25.3309 7.15951 21.8309V20.6642C5.61241 20.6642 4.12868 20.0496 3.03472 18.9557C1.94075 17.8617 1.32617 16.378 1.32617 14.8309C1.32617 13.2838 1.94075 11.8001 3.03472 10.7061C4.12868 9.61213 5.61241 8.99755 7.15951 8.99755M21.1595 20.6642C22.7066 20.6642 24.1903 20.0496 25.2843 18.9557C26.3783 17.8617 26.9928 16.378 26.9928 14.8309C26.9928 13.2838 26.3783 11.8001 25.2843 10.7061C24.1903 9.61213 22.7066 8.99755 21.1595 8.99755V7.83088C21.1595 4.33088 18.8262 3.16422 15.3262 3.16422H12.9928C9.49284 3.16422 7.15951 4.33088 7.15951 7.83088V8.99755M21.1595 20.6642H14.1595M7.15951 8.99755H14.1595" stroke="#26516F" stroke-width="2"/>
</g>
<defs>
<clipPath id="clip0_528_978">
<rect width="28" height="28" fill="white" transform="translate(0.160156 0.830872)"/>
</clipPath>
</defs>
</svg>
