<svg width="28" height="29" viewBox="0 0 28 29" fill="none" xmlns="http://www.w3.org/2000/svg">
<path d="M22.8001 19.821C22.188 19.8242 21.5881 19.9926 21.0637 20.3084L17.7861 17.03C18.2531 16.3291 18.5023 15.5057 18.5023 14.6635C18.5023 13.8213 18.2531 12.9979 17.7861 12.297L19.9755 10.1077C20.5293 10.3744 21.1597 10.4366 21.755 10.2831C22.3503 10.1295 22.872 9.7703 23.2277 9.26895C23.5835 8.76761 23.7503 8.15652 23.6987 7.54396C23.647 6.93139 23.3802 6.35687 22.9455 5.92218C22.5108 5.4875 21.9363 5.22069 21.3237 5.16903C20.7112 5.11738 20.1001 5.2842 19.5987 5.63996C19.0974 5.99571 18.7382 6.51743 18.5846 7.1127C18.4311 7.70797 18.4933 8.33836 18.76 8.8922L16.5707 11.0816C15.8698 10.6146 15.0464 10.3654 14.2042 10.3654C13.362 10.3654 12.5386 10.6146 11.8377 11.0816L8.55927 7.80309C8.87494 7.27899 9.04332 6.6794 9.04666 6.06758C9.04666 5.38753 8.845 4.72276 8.46719 4.15733C8.08937 3.59189 7.55237 3.15118 6.9241 2.89094C6.29582 2.6307 5.60448 2.56261 4.9375 2.69528C4.27052 2.82795 3.65786 3.15542 3.177 3.63629C2.69613 4.11715 2.36866 4.72981 2.23599 5.39679C2.10332 6.06376 2.17141 6.75511 2.43165 7.38338C2.6919 8.01166 3.1326 8.54866 3.69804 8.92648C4.26347 9.30429 4.92824 9.50595 5.60829 9.50595C6.2204 9.50276 6.82031 9.33438 7.34466 9.01856L10.6223 12.297C10.1553 12.9979 9.90612 13.8213 9.90612 14.6635C9.90612 15.5057 10.1553 16.3291 10.6223 17.03L7.3438 20.3084C6.81968 19.9928 6.22011 19.8244 5.60829 19.821C4.92824 19.821 4.26347 20.0227 3.69804 20.4005C3.1326 20.7783 2.6919 21.3153 2.43165 21.9436C2.17141 22.5719 2.10332 23.2632 2.23599 23.9302C2.36866 24.5972 2.69613 25.2098 3.177 25.6907C3.65786 26.1716 4.27052 26.499 4.9375 26.6317C5.60448 26.7644 6.29582 26.6963 6.9241 26.436C7.55237 26.1758 8.08937 25.7351 8.46719 25.1697C8.845 24.6042 9.04666 23.9395 9.04666 23.2594C9.04347 22.6473 8.87509 22.0474 8.55927 21.523L11.8377 18.2454C12.2949 18.5501 12.8065 18.7638 13.3446 18.8746V21.6984C12.7711 21.9012 12.2877 22.3002 11.9799 22.8249C11.6721 23.3496 11.5597 23.9662 11.6626 24.5658C11.7654 25.1653 12.0769 25.7092 12.542 26.1013C13.0071 26.4934 13.5959 26.7085 14.2042 26.7085C14.8125 26.7085 15.4013 26.4934 15.8664 26.1013C16.3315 25.7092 16.643 25.1653 16.7458 24.5658C16.8487 23.9662 16.7363 23.3496 16.4285 22.8249C16.1207 22.3002 15.6373 21.9012 15.0638 21.6984V18.8746C15.6019 18.7638 16.1135 18.5501 16.5707 18.2454L19.8491 21.5239C19.5335 22.048 19.3651 22.6476 19.3618 23.2594C19.3618 23.9395 19.5634 24.6042 19.9412 25.1697C20.319 25.7351 20.856 26.1758 21.4843 26.436C22.1126 26.6963 22.8039 26.7644 23.4709 26.6317C24.1379 26.499 24.7505 26.1716 25.2314 25.6907C25.7123 25.2098 26.0397 24.5972 26.1724 23.9302C26.3051 23.2632 26.237 22.5719 25.9768 21.9436C25.7165 21.3153 25.2758 20.7783 24.7104 20.4005C24.1449 20.0227 23.4802 19.821 22.8001 19.821ZM14.2042 12.0847C14.7142 12.0847 15.2128 12.236 15.6369 12.5193C16.061 12.8027 16.3915 13.2054 16.5867 13.6766C16.7819 14.1479 16.8329 14.6664 16.7334 15.1666C16.6339 15.6668 16.3883 16.1263 16.0277 16.487C15.667 16.8476 15.2075 17.0932 14.7073 17.1927C14.2071 17.2922 13.6886 17.2412 13.2174 17.046C12.7461 16.8508 12.3434 16.5203 12.06 16.0962C11.7767 15.6721 11.6254 15.1735 11.6254 14.6635C11.6261 13.9798 11.898 13.3242 12.3815 12.8408C12.865 12.3573 13.5205 12.0854 14.2042 12.0847ZM3.88911 6.06758C3.88911 5.72756 3.98993 5.39517 4.17884 5.11245C4.36775 4.82973 4.63625 4.60938 4.95039 4.47926C5.26453 4.34914 5.6102 4.31509 5.94369 4.38143C6.27717 4.44776 6.5835 4.6115 6.82394 4.85193C7.06437 5.09237 7.2281 5.39869 7.29444 5.73218C7.36077 6.06567 7.32673 6.41134 7.19661 6.72548C7.06649 7.03962 6.84613 7.30812 6.56342 7.49703C6.2807 7.68593 5.94831 7.78676 5.60829 7.78676C5.15247 7.78631 4.71546 7.60503 4.39315 7.28272C4.07084 6.96041 3.88956 6.5234 3.88911 6.06758ZM5.60829 24.9786C5.26827 24.9786 4.93588 24.8778 4.65316 24.6889C4.37044 24.5 4.15009 24.2315 4.01997 23.9173C3.88985 23.6032 3.8558 23.2575 3.92214 22.924C3.98847 22.5905 4.15221 22.2842 4.39264 22.0438C4.63308 21.8033 4.9394 21.6396 5.27289 21.5733C5.60638 21.5069 5.95205 21.541 6.26619 21.6711C6.58033 21.8012 6.84883 22.0216 7.03774 22.3043C7.22664 22.587 7.32747 22.9194 7.32747 23.2594C7.32702 23.7152 7.14574 24.1522 6.82343 24.4746C6.50112 24.7969 6.06411 24.9781 5.60829 24.9786ZM22.8001 24.9786C22.4601 24.9786 22.1277 24.8778 21.845 24.6889C21.5623 24.5 21.3419 24.2315 21.2118 23.9173C21.0817 23.6032 21.0476 23.2575 21.114 22.924C21.1803 22.5905 21.344 22.2842 21.5845 22.0438C21.8249 21.8033 22.1312 21.6396 22.4647 21.5733C22.7982 21.5069 23.1439 21.541 23.458 21.6711C23.7722 21.8012 24.0407 22.0216 24.2296 22.3043C24.4185 22.587 24.5193 22.9194 24.5193 23.2594C24.5186 23.7152 24.3373 24.152 24.015 24.4743C23.6928 24.7966 23.2559 24.9779 22.8001 24.9786Z" fill="#26516F"/>
</svg>
