<svg width="28" height="29" viewBox="0 0 28 29" fill="none" xmlns="http://www.w3.org/2000/svg">
<path d="M16.0954 24.2992C16.17 24.3287 16.2373 24.3435 16.2972 24.3435C16.3571 24.3435 16.4244 24.3287 16.499 24.2992L23.2844 22.2085C23.261 21.8538 23.1552 21.5983 22.967 21.442C22.7772 21.2857 22.563 21.2075 22.3242 21.2075H16.7884C16.2952 21.2075 15.848 21.188 15.4467 21.1492C15.0454 21.1103 14.6351 21.0177 14.2159 20.8715L12.2162 20.2275C12.0567 20.1746 11.942 20.0696 11.872 19.9125C11.802 19.7554 11.7935 19.5998 11.8464 19.4458C11.8992 19.2918 11.9988 19.179 12.145 19.1075C12.2912 19.0359 12.446 19.027 12.6094 19.0807L14.4177 19.7352C14.7926 19.8627 15.2079 19.9444 15.6637 19.9802C16.1187 20.0159 16.6822 20.0362 17.3542 20.0408H17.6575C17.6575 19.6768 17.5902 19.3828 17.4557 19.1588C17.3211 18.9348 17.1294 18.7785 16.8805 18.6898L10.1675 16.2258C10.1232 16.211 10.082 16.2002 10.0439 16.1932C10.0057 16.1862 9.96491 16.1823 9.92135 16.1815H7.47135V21.7908L16.0954 24.2992ZM15.7979 25.4518L7.47135 23.0158C7.36013 23.4763 7.12485 23.8434 6.76552 24.1172C6.40619 24.3909 6.01341 24.5278 5.58719 24.5278H4.68885C4.17085 24.5278 3.72752 24.3431 3.35885 23.9737C2.98941 23.605 2.80469 23.1617 2.80469 22.6437V16.8978C2.80469 16.3798 2.98902 15.9365 3.35769 15.5678C3.72713 15.1984 4.17085 15.0137 4.68885 15.0137H9.89569C10.0046 15.0137 10.1162 15.0261 10.2305 15.051C10.3456 15.0751 10.4526 15.1039 10.5514 15.1373L17.2935 17.6072C17.7112 17.7658 18.0705 18.0509 18.3715 18.4623C18.6733 18.8738 18.8242 19.3995 18.8242 20.0397H22.3242C23.0265 20.0397 23.5647 20.2594 23.9389 20.6988C24.313 21.139 24.5 21.6971 24.5 22.373C24.5 22.6063 24.437 22.8031 24.311 22.9633C24.185 23.1235 24.0003 23.2445 23.7569 23.3262L16.8922 25.4437C16.7226 25.4919 16.5437 25.5199 16.3555 25.5277C16.1673 25.5354 15.981 25.5098 15.7967 25.4507M3.97135 22.6425C3.97135 22.8525 4.03863 23.0248 4.17319 23.1593C4.30774 23.2939 4.47963 23.3612 4.68885 23.3612H5.58719C5.79641 23.3612 5.9683 23.3052 6.10285 23.1932C6.23741 23.0812 6.30469 22.8976 6.30469 22.6425V16.1815H4.68885C4.47963 16.1815 4.30774 16.2488 4.17319 16.3833C4.03863 16.5179 3.97135 16.6902 3.97135 16.9002V22.6425ZM15.7454 3.55933C15.9367 3.55933 16.1257 3.58966 16.3124 3.65033C16.499 3.71099 16.6764 3.79655 16.8444 3.90699L22.5435 7.96583C22.7947 8.1346 22.9892 8.35822 23.1269 8.63666C23.2645 8.91433 23.3334 9.20288 23.3334 9.50233V16.675C23.3334 16.8407 23.2774 16.9791 23.1654 17.0903C23.0534 17.2015 22.9145 17.2575 22.7489 17.2583C22.5832 17.2591 22.4447 17.2031 22.3335 17.0903C22.2223 16.9775 22.1667 16.8395 22.1667 16.6762V9.47316C22.1667 9.35338 22.1406 9.24138 22.0885 9.13716C22.0356 9.03216 21.9571 8.94233 21.8529 8.86766L16.1537 4.89633C16.0339 4.80688 15.8994 4.76216 15.75 4.76216C15.6007 4.76216 15.4661 4.80688 15.3464 4.89633L9.64719 8.86766C9.54219 8.94233 9.46363 9.03177 9.41152 9.13599C9.35941 9.24177 9.33335 9.35494 9.33335 9.47549V11.6513C9.33335 11.8162 9.27735 11.9547 9.16535 12.0667C9.05335 12.1787 8.91452 12.2347 8.74885 12.2347C8.58319 12.2347 8.44474 12.1787 8.33352 12.0667C8.2223 11.9547 8.16669 11.8158 8.16669 11.6502V9.50349C8.16669 9.20327 8.23552 8.91433 8.37319 8.63666C8.51085 8.35822 8.7053 8.1346 8.95652 7.96583L14.6557 3.90699C14.8245 3.79655 15.0006 3.71099 15.1842 3.65033C15.367 3.58966 15.554 3.55933 15.7454 3.55933ZM14.5834 9.87683C14.7094 9.87683 14.8194 9.83016 14.9135 9.73683C15.0069 9.64194 15.0535 9.53149 15.0535 9.40549C15.0535 9.27949 15.0069 9.16983 14.9135 9.07649C14.8194 8.9816 14.7094 8.93416 14.5834 8.93416C14.4574 8.93416 14.3473 8.9816 14.2532 9.07649C14.1599 9.1706 14.1132 9.28027 14.1132 9.40549C14.1132 9.53071 14.1599 9.64077 14.2532 9.73566C14.3473 9.82977 14.4574 9.87683 14.5834 9.87683ZM16.9167 9.87683C17.0427 9.87683 17.1527 9.83016 17.2469 9.73683C17.3402 9.64194 17.3869 9.53149 17.3869 9.40549C17.3869 9.27949 17.3402 9.16983 17.2469 9.07649C17.1527 8.9816 17.0427 8.93416 16.9167 8.93416C16.7907 8.93416 16.6806 8.9816 16.5865 9.07649C16.4932 9.1706 16.4465 9.28027 16.4465 9.40549C16.4465 9.53071 16.4932 9.64077 16.5865 9.73566C16.6806 9.82977 16.7907 9.87683 16.9167 9.87683ZM14.5834 12.2102C14.7094 12.2102 14.8194 12.1635 14.9135 12.0702C15.0069 11.9753 15.0535 11.8648 15.0535 11.7388C15.0535 11.6128 15.0069 11.5032 14.9135 11.4098C14.8194 11.3149 14.7094 11.2675 14.5834 11.2675C14.4574 11.2675 14.3473 11.3149 14.2532 11.4098C14.1599 11.5039 14.1132 11.6136 14.1132 11.7388C14.1132 11.864 14.1599 11.9741 14.2532 12.069C14.3473 12.1631 14.4574 12.2102 14.5834 12.2102ZM16.9167 12.2102C17.0427 12.2102 17.1527 12.1635 17.2469 12.0702C17.3402 11.9753 17.3869 11.8648 17.3869 11.7388C17.3869 11.6128 17.3402 11.5032 17.2469 11.4098C17.1527 11.3149 17.0427 11.2675 16.9167 11.2675C16.7907 11.2675 16.6806 11.3149 16.5865 11.4098C16.4932 11.5039 16.4465 11.6136 16.4465 11.7388C16.4465 11.864 16.4932 11.9741 16.5865 12.069C16.6806 12.1631 16.7907 12.2102 16.9167 12.2102Z" fill="#26516F"/>
</svg>
