<svg width="28" height="29" viewBox="0 0 28 29" fill="none" xmlns="http://www.w3.org/2000/svg">
<path d="M23.4153 16.9561C24.6813 16.9561 25.7075 15.9298 25.7075 14.6638C25.7075 13.3978 24.6813 12.3716 23.4153 12.3716C22.1493 12.3716 21.123 13.3978 21.123 14.6638C21.123 15.9298 22.1493 16.9561 23.4153 16.9561Z" stroke="#26516F" stroke-width="1.47359" stroke-linecap="round" stroke-linejoin="round"/>
<path d="M23.4153 7.78644C24.6813 7.78644 25.7075 6.76017 25.7075 5.4942C25.7075 4.22823 24.6813 3.20196 23.4153 3.20196C22.1493 3.20196 21.123 4.22823 21.123 5.4942C21.123 6.76017 22.1493 7.78644 23.4153 7.78644Z" stroke="#26516F" stroke-width="1.47359" stroke-linecap="round" stroke-linejoin="round"/>
<path d="M23.4153 26.1247C24.6813 26.1247 25.7075 25.0984 25.7075 23.8325C25.7075 22.5665 24.6813 21.5402 23.4153 21.5402C22.1493 21.5402 21.123 22.5665 21.123 23.8325C21.123 25.0984 22.1493 26.1247 23.4153 26.1247Z" stroke="#26516F" stroke-width="1.47359" stroke-linecap="round" stroke-linejoin="round"/>
<path d="M5.07935 16.9561C6.34532 16.9561 7.3716 15.9298 7.3716 14.6638C7.3716 13.3978 6.34532 12.3716 5.07935 12.3716C3.81338 12.3716 2.78711 13.3978 2.78711 14.6638C2.78711 15.9298 3.81338 16.9561 5.07935 16.9561Z" stroke="#26516F" stroke-width="1.47359" stroke-linecap="round" stroke-linejoin="round"/>
<path d="M7.37109 14.6635H21.1246" stroke="#26516F" stroke-width="1.47359" stroke-linecap="round" stroke-linejoin="round"/>
<path d="M21.1244 5.49484H16.5399C14.2477 5.49484 13.1016 6.64096 13.1016 8.93321V20.3944C13.1016 22.6867 14.2477 23.8328 16.5399 23.8328H21.1244" stroke="#26516F" stroke-width="1.47359" stroke-linecap="round" stroke-linejoin="round"/>
</svg>
