<svg width="28" height="28" viewBox="0 0 28 28" fill="none" xmlns="http://www.w3.org/2000/svg">
<path d="M9.821 21H4.375C4.14294 21 3.92038 20.9078 3.75628 20.7437C3.59219 20.5796 3.5 20.3571 3.5 20.125V5.25H1.75C1.51794 5.25 1.29538 5.15781 1.13128 4.99372C0.967187 4.82962 0.875 4.60706 0.875 4.375C0.875 4.14294 0.967187 3.92038 1.13128 3.75628C1.29538 3.59219 1.51794 3.5 1.75 3.5H26.25C26.4821 3.5 26.7046 3.59219 26.8687 3.75628C27.0328 3.92038 27.125 4.14294 27.125 4.375C27.125 4.60706 27.0328 4.82962 26.8687 4.99372C26.7046 5.15781 26.4821 5.25 26.25 5.25H24.5V20.125C24.5 20.3571 24.4078 20.5796 24.2437 20.7437C24.0796 20.9078 23.8571 21 23.625 21H18.1895L21.2205 26.25H19.201L16.17 21H11.8405L8.8095 26.25H6.79L9.821 21ZM22.75 5.25H5.25V19.25H22.75V5.25ZM9.3695 14.6195C9.28815 14.7009 9.19157 14.7654 9.08527 14.8094C8.97898 14.8534 8.86505 14.8761 8.75 14.8761C8.63495 14.8761 8.52102 14.8534 8.41473 14.8094C8.30843 14.7654 8.21185 14.7009 8.1305 14.6195C8.04915 14.5381 7.98461 14.4416 7.94058 14.3353C7.89656 14.229 7.87389 14.1151 7.87389 14C7.87389 13.8849 7.89656 13.771 7.94058 13.6647C7.98461 13.5584 8.04915 13.4619 8.1305 13.3805L12.1678 9.345L15.5978 11.9175L18.5675 8.204C18.637 8.10818 18.7252 8.02745 18.8269 7.96672C18.9285 7.90598 19.0413 7.86649 19.1587 7.85065C19.276 7.83481 19.3953 7.84293 19.5094 7.87454C19.6235 7.90614 19.7299 7.96057 19.8224 8.03452C19.9148 8.10847 19.9913 8.20041 20.0472 8.30477C20.1031 8.40914 20.1372 8.52376 20.1475 8.64169C20.1578 8.75962 20.144 8.87842 20.1071 8.99088C20.0701 9.10335 20.0107 9.20715 19.9325 9.296L15.904 14.3342L12.3322 11.655L9.3695 14.6177V14.6195Z" fill="#26516F"/>
</svg>
