<svg width="28" height="28" viewBox="0 0 28 28" fill="none" xmlns="http://www.w3.org/2000/svg">
<path d="M21.525 21.35L23.8 23.625L21.525 25.9L22.75 27.125L26.25 23.625L22.75 20.125L21.525 21.35ZM19.6 21.35L17.325 23.625L19.6 25.9L18.375 27.125L14.875 23.625L18.375 20.125L19.6 21.35Z" fill="#26516F"/>
<path d="M9.625 7.875C10.1082 7.875 10.5 7.48325 10.5 7C10.5 6.51675 10.1082 6.125 9.625 6.125C9.14175 6.125 8.75 6.51675 8.75 7C8.75 7.48325 9.14175 7.875 9.625 7.875Z" fill="#26516F"/>
<path d="M9.625 14.875C10.1082 14.875 10.5 14.4832 10.5 14C10.5 13.5168 10.1082 13.125 9.625 13.125C9.14175 13.125 8.75 13.5168 8.75 14C8.75 14.4832 9.14175 14.875 9.625 14.875Z" fill="#26516F"/>
<path d="M9.625 21.875C10.1082 21.875 10.5 21.4832 10.5 21C10.5 20.5168 10.1082 20.125 9.625 20.125C9.14175 20.125 8.75 20.5168 8.75 21C8.75 21.4832 9.14175 21.875 9.625 21.875Z" fill="#26516F"/>
<path d="M21 2.625H7C6.0375 2.625 5.25 3.4125 5.25 4.375V23.625C5.25 24.5875 6.0375 25.375 7 25.375H13.125V23.625H7V18.375H22.75V4.375C22.75 3.4125 21.9625 2.625 21 2.625ZM21 16.625H7V11.375H21V16.625ZM21 9.625H7V4.375H21V9.625Z" fill="#26516F"/>
</svg>
