<svg width="29" height="29" viewBox="0 0 29 29" fill="none" xmlns="http://www.w3.org/2000/svg">
<path d="M10.0826 17.4623C9.8648 17.4623 9.64704 17.3821 9.47512 17.2102L7.18288 14.9179C6.8505 14.5856 6.8505 14.0354 7.18288 13.703L9.47512 11.4108C9.80749 11.0784 10.3576 11.0784 10.69 11.4108C11.0224 11.7431 11.0224 12.2933 10.69 12.6257L9.0052 14.3105L10.69 15.9952C11.0224 16.3276 11.0224 16.8778 10.69 17.2102C10.5181 17.3821 10.3003 17.4623 10.0826 17.4623Z" fill="#26516F"/>
<path d="M19.2493 17.4623C19.0315 17.4623 18.8138 17.3821 18.6419 17.2102C18.3095 16.8778 18.3095 16.3276 18.6419 15.9952L20.3267 14.3105L18.6419 12.6257C18.3095 12.2933 18.3095 11.7431 18.6419 11.4108C18.9742 11.0784 19.5244 11.0784 19.8567 11.4108L22.149 13.703C22.4814 14.0354 22.4814 14.5856 22.149 14.9179L19.8567 17.2102C19.6848 17.3821 19.4671 17.4623 19.2493 17.4623Z" fill="#26516F"/>
<path d="M14.6665 26.6306C7.87001 26.6306 2.3457 21.1063 2.3457 14.3098C2.3457 7.51329 7.87001 1.98898 14.6665 1.98898C21.463 1.98898 26.9873 7.51329 26.9873 14.3098C26.9873 21.1063 21.463 26.6306 14.6665 26.6306ZM14.6665 3.70817C8.82129 3.70817 4.06489 8.46457 4.06489 14.3098C4.06489 20.155 8.82129 24.9114 14.6665 24.9114C20.5117 24.9114 25.2681 20.155 25.2681 14.3098C25.2681 8.46457 20.5117 3.70817 14.6665 3.70817Z" fill="#26516F"/>
<path d="M13.519 17.8398C13.4044 17.8398 13.2898 17.8169 13.1867 17.7711C12.7511 17.5877 12.5448 17.0834 12.7397 16.6364L15.0319 11.284C15.2153 10.8485 15.7196 10.6421 16.1551 10.837C16.5906 11.0204 16.7969 11.5247 16.6021 11.9717L14.3099 17.3241C14.1723 17.645 13.8514 17.8398 13.519 17.8398Z" fill="#26516F"/>
</svg>
