<svg width="28" height="29" viewBox="0 0 28 29" fill="none" xmlns="http://www.w3.org/2000/svg">
<path d="M11.18 23.4794H16.6814C21.2659 23.4794 23.0997 21.6456 23.0997 17.0611V11.5597C23.0997 6.97523 21.2659 5.14143 16.6814 5.14143H11.18C6.59551 5.14143 4.76172 6.97523 4.76172 11.5597V17.0611C4.76172 21.6456 6.59551 23.4794 11.18 23.4794Z" stroke="#26516F" stroke-width="1.47359" stroke-linecap="round" stroke-linejoin="round"/>
<path d="M12.2106 20.041H15.649C18.5143 20.041 19.6604 18.8949 19.6604 16.0296V12.5912C19.6604 9.72592 18.5143 8.5798 15.649 8.5798H12.2106C9.34534 8.5798 8.19922 9.72592 8.19922 12.5912V16.0296C8.19922 18.8949 9.34534 20.041 12.2106 20.041Z" stroke="#26516F" stroke-width="1.47359" stroke-linecap="round" stroke-linejoin="round"/>
<path d="M9.35938 5.14081V2.84856" stroke="#26516F" stroke-width="1.47359" stroke-linecap="round" stroke-linejoin="round"/>
<path d="M13.9316 5.14081V2.84856" stroke="#26516F" stroke-width="1.47359" stroke-linecap="round" stroke-linejoin="round"/>
<path d="M18.5137 5.14081V2.84856" stroke="#26516F" stroke-width="1.47359" stroke-linecap="round" stroke-linejoin="round"/>
<path d="M23.0996 9.72529H25.3919" stroke="#26516F" stroke-width="1.47359" stroke-linecap="round" stroke-linejoin="round"/>
<path d="M23.0996 14.3101H25.3919" stroke="#26516F" stroke-width="1.47359" stroke-linecap="round" stroke-linejoin="round"/>
<path d="M23.0996 18.8949H25.3919" stroke="#26516F" stroke-width="1.47359" stroke-linecap="round" stroke-linejoin="round"/>
<path d="M18.5137 23.4787V25.771" stroke="#26516F" stroke-width="1.47359" stroke-linecap="round" stroke-linejoin="round"/>
<path d="M13.9414 23.4787V25.771" stroke="#26516F" stroke-width="1.47359" stroke-linecap="round" stroke-linejoin="round"/>
<path d="M9.35938 23.4787V25.771" stroke="#26516F" stroke-width="1.47359" stroke-linecap="round" stroke-linejoin="round"/>
<path d="M2.4707 9.72529H4.76295" stroke="#26516F" stroke-width="1.47359" stroke-linecap="round" stroke-linejoin="round"/>
<path d="M2.4707 14.3101H4.76295" stroke="#26516F" stroke-width="1.47359" stroke-linecap="round" stroke-linejoin="round"/>
<path d="M2.4707 18.8949H4.76295" stroke="#26516F" stroke-width="1.47359" stroke-linecap="round" stroke-linejoin="round"/>
</svg>
