<svg width="28" height="28" viewBox="0 0 28 28" fill="none" xmlns="http://www.w3.org/2000/svg">
<path d="M22.129 12.0101L21.3562 11.4837C22.2583 10.1551 22.7836 8.60684 22.8763 7.00356C22.969 5.40029 22.6256 3.80185 21.8826 2.3781L21.7258 2.0925L22.5397 1.6333L22.7077 1.94503C23.5298 3.51842 23.9101 5.28519 23.8082 7.05747C23.7063 8.82976 23.126 10.5413 22.129 12.0101ZM24.2794 25.3213V26.1333H3.74609V25.3213H8.39036L11.2818 11.9466C11.327 11.7382 11.4423 11.5515 11.6084 11.4177C11.7744 11.2839 11.9813 11.211 12.1946 11.2112H13.548V8.58663C13.083 8.47862 12.6679 8.21743 12.3693 7.84502C12.0707 7.47261 11.9059 7.01062 11.9016 6.5333C11.8931 6.24446 11.9426 5.95686 12.0473 5.68751C12.152 5.41817 12.3096 5.17257 12.5109 4.96526C12.7122 4.75796 12.9531 4.59315 13.2192 4.48061C13.4854 4.36807 13.7714 4.31008 14.0604 4.31008C14.3493 4.31008 14.6354 4.36807 14.9015 4.48061C15.1676 4.59315 15.4085 4.75796 15.6098 4.96526C15.8111 5.17257 15.9688 5.41817 16.0734 5.68751C16.1781 5.95686 16.2277 6.24446 16.2192 6.5333C16.2151 7.02663 16.0397 7.50319 15.723 7.88149C15.4063 8.25979 14.9681 8.51631 14.4832 8.60717V11.2112H15.829C16.0426 11.2106 16.25 11.2833 16.4164 11.4171C16.5829 11.551 16.6984 11.7379 16.7437 11.9466L19.6314 25.3213H24.2794ZM15.7805 16.3352H12.245L11.6421 19.1221H16.3853L15.7805 16.3352ZM11.4386 20.0554L10.8357 22.8461H17.188L16.585 20.0554H11.4386ZM12.9469 13.0778L12.4429 15.4018H15.5789L15.0768 13.0778H12.9469ZM10.3 25.3232H17.7237L17.3896 23.7794H10.6322L10.3 25.3232ZM9.72503 9.35757C9.1673 8.51098 8.87253 7.51829 8.87784 6.50451C8.88316 5.49074 9.18832 4.50119 9.75489 3.6605L8.98209 3.13783C8.31189 4.13117 7.95086 5.30073 7.94455 6.499C7.93823 7.69726 8.28692 8.87056 8.94663 9.8709L9.72503 9.35757ZM20.0794 6.5333C20.0806 5.34841 19.734 4.18922 19.0826 3.19943L18.3024 3.71277C18.8587 4.55933 19.1524 5.5515 19.1464 6.56451C19.1405 7.57753 18.8351 8.56616 18.2688 9.4061L19.0416 9.92503C19.7193 8.92389 20.0809 7.7423 20.0794 6.5333ZM6.59649 11.4202C5.69264 10.0464 5.18743 8.44887 5.13701 6.80515C5.08659 5.16144 5.49294 3.53594 6.31089 2.1093L5.50263 1.64263C4.59816 3.2197 4.14896 5.01678 4.20498 6.83393C4.261 8.65109 4.82006 10.4171 5.81996 11.9354L6.59649 11.4202Z" fill="#26516F"/>
</svg>
