<svg width="56" height="56" viewBox="0 0 56 56" fill="none" xmlns="http://www.w3.org/2000/svg">
<g clip-path="url(#clip0_529_100)">
<path d="M6.875 28.5H9.16667M27.5 7.875V10.1667M45.8333 28.5H48.125M12.8333 13.8333L14.4375 15.4375M42.1667 13.8333L40.5625 15.4375M22.2292 39.9583H32.7708M20.625 37.6667C18.7011 36.2237 17.2799 34.212 16.5629 31.9165C15.8458 29.621 15.8692 27.158 16.6297 24.8766C17.3902 22.5951 18.8492 20.6107 20.8002 19.2045C22.7512 17.7983 25.0951 17.0417 27.5 17.0417C29.9049 17.0417 32.2488 17.7983 34.1998 19.2045C36.1508 20.6107 37.6098 22.5951 38.3703 24.8766C39.1308 27.158 39.1542 29.621 38.4371 31.9165C37.7201 34.212 36.2989 36.2237 34.375 37.6667C33.4803 38.5524 32.8066 39.6362 32.4085 40.8306C32.0103 42.025 31.899 43.2963 32.0833 44.5417C32.0833 45.7572 31.6004 46.923 30.7409 47.7826C29.8814 48.6421 28.7156 49.125 27.5 49.125C26.2844 49.125 25.1186 48.6421 24.2591 47.7826C23.3996 46.923 22.9167 45.7572 22.9167 44.5417C23.101 43.2963 22.9897 42.025 22.5915 40.8306C22.1934 39.6362 21.5197 38.5524 20.625 37.6667Z" stroke="black" stroke-width="2" stroke-linecap="round" stroke-linejoin="round"/>
</g>
<defs>
<clipPath id="clip0_529_100">
<rect width="55" height="55" fill="white" transform="translate(0.263672 0.732788)"/>
</clipPath>
</defs>
</svg>
